# xmcd
#
# Track frame offsets:
#	150
#	16797
#	39234
#	68375
#	96927
#	118307
#	141154
#	166445
#	187216
#	212976
#	225353
#	256410
#	275775
#	291486
#	305325
#	322607
#
# Disc length: 4529 seconds
#
# Revision: 0
# Processed by: cddbd v1.5.2PL0 Copyright (c) Steve Scherf et al.
# Submitted via: EasyCDDAExtractor 9.0.2.1
#
DISCID=e711af10
DTITLE=(Africa) - World Tour African Roots 2
DYEAR=2009
DGENRE=Africa
TTITLE0=Angelique Kidjo - Congoleo
TTITLE1=Obisia - Sunshine Day
TTITLE2=Rasha - Azara Alhai
TTITLE3=Ghorwane - Uyo Mussiya Kwini
TTITLE4=Oliver Mtukudzi - Bvongodza Muto
TTITLE5=Gino Sitson - Bi Nyai
TTITLE6=Lira - Hamba
TTITLE7=Freshlyground - Zithande
TTITLE8=Stomple Mavi - Nomganga
TTITLE9=Vusi Mahalasela - Melodi ya Mamelodi
TTITLE10=Zagazougou Coup - Fara ola
TTITLE11=Orchestra Marrabenta Star De Mocambique ft. Wazimbo - Djomela
TTITLE12=Adjiri Odametey - Naaki
TTITLE13=Themba Mkhize - Nomathemba
TTITLE14=MXO - Zandly'bone
TTITLE15=Koalas Desperados ft. Macaco, Jaqee and Bezegol - All night long
EXTD=
EXTT0=
EXTT1=
EXTT2=
EXTT3=
EXTT4=
EXTT5=
EXTT6=
EXTT7=
EXTT8=
EXTT9=
EXTT10=
EXTT11=
EXTT12=
EXTT13=
EXTT14=
EXTT15=
PLAYORDER=
